<mxfile host="Electron" modified="2023-10-04T03:44:44.091Z" agent="Mozilla/5.0 (Windows NT 10.0; Win64; x64) AppleWebKit/537.36 (KHTML, like Gecko) draw.io/22.0.2 Chrome/114.0.5735.289 Electron/25.8.4 Safari/537.36" etag="6cjuxahyVGEVZj9itc_k" version="22.0.2" type="device">
  <diagram name="Página-1" id="EdjJFiV4R5c-vxvttfam">
    <mxGraphModel dx="2084" dy="749" grid="1" gridSize="10" guides="1" tooltips="1" connect="1" arrows="1" fold="1" page="1" pageScale="1" pageWidth="827" pageHeight="1169" math="0" shadow="0">
      <root>
        <mxCell id="0" />
        <mxCell id="1" parent="0" />
        <mxCell id="n62Y5mF50MThFEJWrE6d-1" value="" style="rounded=0;whiteSpace=wrap;html=1;" vertex="1" parent="1">
          <mxGeometry x="-520" y="953.5" width="780" height="446.5" as="geometry" />
        </mxCell>
        <mxCell id="n62Y5mF50MThFEJWrE6d-2" value="" style="rounded=0;whiteSpace=wrap;html=1;" vertex="1" parent="1">
          <mxGeometry x="-340" y="981" width="540" height="389" as="geometry" />
        </mxCell>
        <mxCell id="n62Y5mF50MThFEJWrE6d-3" style="rounded=0;orthogonalLoop=1;jettySize=auto;html=1;entryX=0;entryY=0.5;entryDx=0;entryDy=0;endArrow=none;endFill=0;exitX=1;exitY=0.3333333333333333;exitDx=0;exitDy=0;exitPerimeter=0;" edge="1" parent="1" source="n62Y5mF50MThFEJWrE6d-6" target="n62Y5mF50MThFEJWrE6d-7">
          <mxGeometry relative="1" as="geometry" />
        </mxCell>
        <mxCell id="n62Y5mF50MThFEJWrE6d-4" style="rounded=0;orthogonalLoop=1;jettySize=auto;html=1;exitX=1;exitY=0.3333333333333333;exitDx=0;exitDy=0;exitPerimeter=0;entryX=0;entryY=0.5;entryDx=0;entryDy=0;endArrow=none;endFill=0;" edge="1" parent="1" source="n62Y5mF50MThFEJWrE6d-6" target="n62Y5mF50MThFEJWrE6d-9">
          <mxGeometry relative="1" as="geometry" />
        </mxCell>
        <mxCell id="n62Y5mF50MThFEJWrE6d-5" style="rounded=0;orthogonalLoop=1;jettySize=auto;html=1;exitX=1;exitY=0.3333333333333333;exitDx=0;exitDy=0;exitPerimeter=0;entryX=0;entryY=0.5;entryDx=0;entryDy=0;endArrow=none;endFill=0;" edge="1" parent="1" source="n62Y5mF50MThFEJWrE6d-6" target="n62Y5mF50MThFEJWrE6d-8">
          <mxGeometry relative="1" as="geometry" />
        </mxCell>
        <mxCell id="n62Y5mF50MThFEJWrE6d-6" value="User" style="shape=umlActor;html=1;verticalLabelPosition=bottom;verticalAlign=top;align=center;" vertex="1" parent="1">
          <mxGeometry x="-443" y="1160" width="30" height="60" as="geometry" />
        </mxCell>
        <mxCell id="n62Y5mF50MThFEJWrE6d-7" value="&lt;span style=&quot;font-weight: 400;&quot;&gt;&lt;font style=&quot;font-size: 14px;&quot;&gt;Traducir palabras&lt;/font&gt;&lt;/span&gt;" style="shape=ellipse;html=1;strokeWidth=3;fontStyle=1;whiteSpace=wrap;align=center;perimeter=ellipsePerimeter;" vertex="1" parent="1">
          <mxGeometry x="-293.5" y="1152" width="225" height="60" as="geometry" />
        </mxCell>
        <mxCell id="n62Y5mF50MThFEJWrE6d-8" value="&lt;div style=&quot;font-weight: 400;&quot;&gt;&lt;font style=&quot;font-size: 14px;&quot;&gt;&lt;span style=&quot;&quot; id=&quot;docs-internal-guid-8aa03835-7fff-aa45-d898-25cc0150170f&quot;&gt;&lt;/span&gt;Traducir textos&lt;/font&gt;&lt;/div&gt;" style="shape=ellipse;html=1;strokeWidth=3;fontStyle=1;whiteSpace=wrap;align=center;perimeter=ellipsePerimeter;" vertex="1" parent="1">
          <mxGeometry x="-276" y="1050" width="190" height="60" as="geometry" />
        </mxCell>
        <mxCell id="n62Y5mF50MThFEJWrE6d-9" value="&lt;font style=&quot;&quot;&gt;&lt;span style=&quot;font-size: 14px; font-weight: 400;&quot;&gt;Traducir frases&amp;nbsp;en chat&lt;/span&gt;&lt;/font&gt;" style="shape=ellipse;html=1;strokeWidth=3;fontStyle=1;whiteSpace=wrap;align=center;perimeter=ellipsePerimeter;" vertex="1" parent="1">
          <mxGeometry x="-291" y="1261" width="220" height="60" as="geometry" />
        </mxCell>
        <mxCell id="n62Y5mF50MThFEJWrE6d-10" value="&amp;lt;&amp;lt;include&amp;gt;&amp;gt;" style="edgeStyle=none;html=1;endArrow=open;verticalAlign=bottom;dashed=1;labelBackgroundColor=none;rounded=0;exitX=1;exitY=0.5;exitDx=0;exitDy=0;" edge="1" parent="1" source="n62Y5mF50MThFEJWrE6d-9" target="n62Y5mF50MThFEJWrE6d-12">
          <mxGeometry width="160" relative="1" as="geometry">
            <mxPoint x="-328.5" y="1201" as="sourcePoint" />
            <mxPoint x="-168.5" y="1201" as="targetPoint" />
          </mxGeometry>
        </mxCell>
        <mxCell id="n62Y5mF50MThFEJWrE6d-11" value="&lt;font style=&quot;font-size: 14px;&quot;&gt;Traductor elfo-español&lt;/font&gt;" style="text;html=1;strokeColor=none;fillColor=none;align=center;verticalAlign=middle;whiteSpace=wrap;rounded=0;" vertex="1" parent="1">
          <mxGeometry x="-175.37000000000012" y="1001" width="258.75" height="30" as="geometry" />
        </mxCell>
        <mxCell id="n62Y5mF50MThFEJWrE6d-12" value="&lt;span style=&quot;font-weight: 400;&quot;&gt;&lt;font style=&quot;font-size: 14px;&quot;&gt;Traductor elfo-español&lt;/font&gt;&lt;/span&gt;" style="shape=ellipse;html=1;strokeWidth=3;fontStyle=1;whiteSpace=wrap;align=center;perimeter=ellipsePerimeter;" vertex="1" parent="1">
          <mxGeometry x="-25" y="1152" width="225" height="60" as="geometry" />
        </mxCell>
        <mxCell id="n62Y5mF50MThFEJWrE6d-13" value="&amp;lt;&amp;lt;include&amp;gt;&amp;gt;" style="edgeStyle=none;html=1;endArrow=open;verticalAlign=bottom;dashed=1;labelBackgroundColor=none;rounded=0;exitX=1;exitY=0.5;exitDx=0;exitDy=0;" edge="1" parent="1" source="n62Y5mF50MThFEJWrE6d-8" target="n62Y5mF50MThFEJWrE6d-12">
          <mxGeometry x="-0.0476" width="160" relative="1" as="geometry">
            <mxPoint x="-9" y="1111" as="sourcePoint" />
            <mxPoint x="-9.000000000000227" y="1133" as="targetPoint" />
            <mxPoint as="offset" />
          </mxGeometry>
        </mxCell>
        <mxCell id="n62Y5mF50MThFEJWrE6d-14" value="&amp;lt;&amp;lt;include&amp;gt;&amp;gt;" style="edgeStyle=none;html=1;endArrow=open;verticalAlign=bottom;dashed=1;labelBackgroundColor=none;rounded=0;entryX=0;entryY=0.5;entryDx=0;entryDy=0;exitX=1;exitY=0.5;exitDx=0;exitDy=0;" edge="1" parent="1" source="n62Y5mF50MThFEJWrE6d-7" target="n62Y5mF50MThFEJWrE6d-12">
          <mxGeometry x="-0.3982" y="16" width="160" relative="1" as="geometry">
            <mxPoint x="-85.99999999999659" y="1121.5" as="sourcePoint" />
            <mxPoint x="123.5" y="1242.4999999999998" as="targetPoint" />
            <mxPoint as="offset" />
          </mxGeometry>
        </mxCell>
        <mxCell id="n62Y5mF50MThFEJWrE6d-15" style="edgeStyle=orthogonalEdgeStyle;rounded=0;orthogonalLoop=1;jettySize=auto;html=1;exitX=0.5;exitY=1;exitDx=0;exitDy=0;" edge="1" parent="1" source="n62Y5mF50MThFEJWrE6d-2" target="n62Y5mF50MThFEJWrE6d-2">
          <mxGeometry relative="1" as="geometry" />
        </mxCell>
        <mxCell id="n62Y5mF50MThFEJWrE6d-16" value="" style="rounded=0;whiteSpace=wrap;html=1;" vertex="1" parent="1">
          <mxGeometry x="-520" y="470" width="780" height="446.5" as="geometry" />
        </mxCell>
        <mxCell id="n62Y5mF50MThFEJWrE6d-17" value="" style="rounded=0;whiteSpace=wrap;html=1;" vertex="1" parent="1">
          <mxGeometry x="-340" y="497.5" width="540" height="389" as="geometry" />
        </mxCell>
        <mxCell id="n62Y5mF50MThFEJWrE6d-18" style="rounded=0;orthogonalLoop=1;jettySize=auto;html=1;entryX=0;entryY=0.5;entryDx=0;entryDy=0;endArrow=none;endFill=0;exitX=1;exitY=0.3333333333333333;exitDx=0;exitDy=0;exitPerimeter=0;" edge="1" parent="1" source="n62Y5mF50MThFEJWrE6d-21" target="n62Y5mF50MThFEJWrE6d-22">
          <mxGeometry relative="1" as="geometry" />
        </mxCell>
        <mxCell id="n62Y5mF50MThFEJWrE6d-19" style="rounded=0;orthogonalLoop=1;jettySize=auto;html=1;exitX=1;exitY=0.3333333333333333;exitDx=0;exitDy=0;exitPerimeter=0;entryX=0;entryY=0.5;entryDx=0;entryDy=0;endArrow=none;endFill=0;" edge="1" parent="1" source="n62Y5mF50MThFEJWrE6d-21" target="n62Y5mF50MThFEJWrE6d-24">
          <mxGeometry relative="1" as="geometry" />
        </mxCell>
        <mxCell id="n62Y5mF50MThFEJWrE6d-20" style="rounded=0;orthogonalLoop=1;jettySize=auto;html=1;exitX=1;exitY=0.3333333333333333;exitDx=0;exitDy=0;exitPerimeter=0;entryX=0;entryY=0.5;entryDx=0;entryDy=0;endArrow=none;endFill=0;" edge="1" parent="1" source="n62Y5mF50MThFEJWrE6d-21" target="n62Y5mF50MThFEJWrE6d-23">
          <mxGeometry relative="1" as="geometry" />
        </mxCell>
        <mxCell id="n62Y5mF50MThFEJWrE6d-21" value="Administrador" style="shape=umlActor;html=1;verticalLabelPosition=bottom;verticalAlign=top;align=center;" vertex="1" parent="1">
          <mxGeometry x="-443" y="676.5" width="30" height="60" as="geometry" />
        </mxCell>
        <mxCell id="n62Y5mF50MThFEJWrE6d-22" value="&lt;span style=&quot;font-weight: 400;&quot;&gt;&lt;font style=&quot;font-size: 14px;&quot;&gt;Corregir traducciones&lt;/font&gt;&lt;/span&gt;" style="shape=ellipse;html=1;strokeWidth=3;fontStyle=1;whiteSpace=wrap;align=center;perimeter=ellipsePerimeter;" vertex="1" parent="1">
          <mxGeometry x="-293.5" y="668.5" width="225" height="60" as="geometry" />
        </mxCell>
        <mxCell id="n62Y5mF50MThFEJWrE6d-23" value="&lt;div style=&quot;font-weight: 400;&quot;&gt;&lt;font style=&quot;font-size: 14px;&quot;&gt;&lt;span style=&quot;&quot; id=&quot;docs-internal-guid-8aa03835-7fff-aa45-d898-25cc0150170f&quot;&gt;&lt;/span&gt;Agregar traducciones&lt;/font&gt;&lt;/div&gt;" style="shape=ellipse;html=1;strokeWidth=3;fontStyle=1;whiteSpace=wrap;align=center;perimeter=ellipsePerimeter;" vertex="1" parent="1">
          <mxGeometry x="-276" y="566.5" width="190" height="60" as="geometry" />
        </mxCell>
        <mxCell id="n62Y5mF50MThFEJWrE6d-24" value="&lt;font style=&quot;&quot;&gt;&lt;span style=&quot;font-size: 14px; font-weight: 400;&quot;&gt;Eliminar traducciones&lt;/span&gt;&lt;/font&gt;" style="shape=ellipse;html=1;strokeWidth=3;fontStyle=1;whiteSpace=wrap;align=center;perimeter=ellipsePerimeter;" vertex="1" parent="1">
          <mxGeometry x="-291" y="777.5" width="220" height="60" as="geometry" />
        </mxCell>
        <mxCell id="n62Y5mF50MThFEJWrE6d-25" value="&amp;lt;&amp;lt;include&amp;gt;&amp;gt;" style="edgeStyle=none;html=1;endArrow=open;verticalAlign=bottom;dashed=1;labelBackgroundColor=none;rounded=0;exitX=1;exitY=0.5;exitDx=0;exitDy=0;" edge="1" parent="1" source="n62Y5mF50MThFEJWrE6d-24" target="n62Y5mF50MThFEJWrE6d-27">
          <mxGeometry width="160" relative="1" as="geometry">
            <mxPoint x="-328.5" y="717.5" as="sourcePoint" />
            <mxPoint x="-168.5" y="717.5" as="targetPoint" />
          </mxGeometry>
        </mxCell>
        <mxCell id="n62Y5mF50MThFEJWrE6d-26" value="&lt;font style=&quot;font-size: 14px;&quot;&gt;Diccionario elfo-español&lt;/font&gt;" style="text;html=1;strokeColor=none;fillColor=none;align=center;verticalAlign=middle;whiteSpace=wrap;rounded=0;" vertex="1" parent="1">
          <mxGeometry x="-175.37000000000012" y="517.5" width="258.75" height="30" as="geometry" />
        </mxCell>
        <mxCell id="n62Y5mF50MThFEJWrE6d-27" value="&lt;span style=&quot;font-weight: 400;&quot;&gt;&lt;font style=&quot;font-size: 14px;&quot;&gt;Diccionario elfo-español&lt;/font&gt;&lt;/span&gt;" style="shape=ellipse;html=1;strokeWidth=3;fontStyle=1;whiteSpace=wrap;align=center;perimeter=ellipsePerimeter;" vertex="1" parent="1">
          <mxGeometry x="-25" y="668.5" width="225" height="60" as="geometry" />
        </mxCell>
        <mxCell id="n62Y5mF50MThFEJWrE6d-28" value="&amp;lt;&amp;lt;include&amp;gt;&amp;gt;" style="edgeStyle=none;html=1;endArrow=open;verticalAlign=bottom;dashed=1;labelBackgroundColor=none;rounded=0;exitX=1;exitY=0.5;exitDx=0;exitDy=0;" edge="1" parent="1" source="n62Y5mF50MThFEJWrE6d-23" target="n62Y5mF50MThFEJWrE6d-27">
          <mxGeometry x="-0.0476" width="160" relative="1" as="geometry">
            <mxPoint x="-9" y="627.5" as="sourcePoint" />
            <mxPoint x="-9.000000000000227" y="649.5" as="targetPoint" />
            <mxPoint as="offset" />
          </mxGeometry>
        </mxCell>
        <mxCell id="n62Y5mF50MThFEJWrE6d-29" value="&amp;lt;&amp;lt;include&amp;gt;&amp;gt;" style="edgeStyle=none;html=1;endArrow=open;verticalAlign=bottom;dashed=1;labelBackgroundColor=none;rounded=0;entryX=0;entryY=0.5;entryDx=0;entryDy=0;exitX=1;exitY=0.5;exitDx=0;exitDy=0;" edge="1" parent="1" source="n62Y5mF50MThFEJWrE6d-22" target="n62Y5mF50MThFEJWrE6d-27">
          <mxGeometry x="-0.3982" y="16" width="160" relative="1" as="geometry">
            <mxPoint x="-85.99999999999659" y="638" as="sourcePoint" />
            <mxPoint x="123.5" y="758.9999999999998" as="targetPoint" />
            <mxPoint as="offset" />
          </mxGeometry>
        </mxCell>
        <mxCell id="n62Y5mF50MThFEJWrE6d-30" style="edgeStyle=orthogonalEdgeStyle;rounded=0;orthogonalLoop=1;jettySize=auto;html=1;exitX=0.5;exitY=1;exitDx=0;exitDy=0;" edge="1" parent="1" source="n62Y5mF50MThFEJWrE6d-17" target="n62Y5mF50MThFEJWrE6d-17">
          <mxGeometry relative="1" as="geometry" />
        </mxCell>
      </root>
    </mxGraphModel>
  </diagram>
</mxfile>
